<?xml version="1.0" encoding="UTF-8"?> <svg xmlns="http://www.w3.org/2000/svg" width="44" height="44" viewBox="0 0 44 44" fill="none"> <g clip-path="url(#clip0)"> <rect width="44" height="44" fill="#272E33"></rect> <path d="M20.3587 2.72868C20.7779 1.00992 23.2221 1.00992 23.6413 2.72868C23.9934 4.17217 25.9033 4.49087 26.705 3.23992C27.6596 1.75042 29.9713 2.54402 29.8098 4.30579C29.6741 5.78539 31.377 6.70695 32.5415 5.78411C33.928 4.68527 35.8568 6.18648 35.1319 7.80034C34.5232 9.15572 35.8346 10.5803 37.2356 10.0855C38.9038 9.49645 40.2406 11.5426 39.031 12.8336C38.0152 13.9179 38.7929 15.6911 40.2787 15.6781C42.0478 15.6626 42.6478 18.0319 41.0845 18.8603C39.7717 19.5559 39.9316 21.4856 41.341 21.9557C43.0193 22.5155 42.8175 24.9512 41.07 25.2271C39.6023 25.4588 39.127 27.3358 40.3075 28.2381C41.7131 29.3125 40.7313 31.5507 38.9889 31.2443C37.5255 30.9869 36.4665 32.6079 37.29 33.8446C38.2706 35.3171 36.6152 37.1153 35.0667 36.2597C33.7663 35.5411 32.2383 36.7303 32.6156 38.1674C33.0649 39.8786 30.9154 41.0419 29.7286 39.7298C28.7319 38.6279 26.9006 39.2566 26.7909 40.7383C26.6602 42.5027 24.2495 42.9049 23.553 41.2786C22.9681 39.9128 21.0319 39.9128 20.447 41.2786C19.7505 42.9049 17.3398 42.5027 17.2091 40.7383C17.0994 39.2566 15.2681 38.6279 14.2714 39.7298C13.0846 41.0419 10.9351 39.8786 11.3844 38.1674C11.7617 36.7303 10.2337 35.5411 8.93326 36.2597C7.38477 37.1153 5.72942 35.3171 6.71 33.8446C7.53353 32.6079 6.4745 30.9869 5.01115 31.2443C3.26874 31.5507 2.28695 29.3125 3.69253 28.2381C4.873 27.3358 4.39768 25.4588 2.93004 25.2271C1.18253 24.9512 0.980691 22.5155 2.65897 21.9557C4.06845 21.4856 4.22834 19.5559 2.91546 18.8603C1.35221 18.0319 1.9522 15.6626 3.7213 15.6781C5.20705 15.6911 5.98484 13.9179 4.96899 12.8336C3.7594 11.5426 5.09621 9.49645 6.76441 10.0855C8.16543 10.5803 9.47683 9.15572 8.86809 7.80034C8.14325 6.18648 10.072 4.68527 11.4585 5.78411C12.623 6.70695 14.3259 5.78539 14.1902 4.30579C14.0287 2.54402 16.3404 1.75042 17.295 3.23992C18.0967 4.49087 20.0066 4.17217 20.3587 2.72868Z" fill="url(#paint0_linear)"></path> </g> <defs> <linearGradient id="paint0_linear" x1="36.8571" y1="35" x2="10.3929" y2="7.60714" gradientUnits="userSpaceOnUse"> <stop stop-color="#83B2FD"></stop> <stop offset="1" stop-color="#D4F1FF"></stop> </linearGradient> <clipPath id="clip0"> <rect width="44" height="44" fill="white"></rect> </clipPath> </defs> </svg> 