<?xml version="1.0" encoding="UTF-8"?> <svg xmlns="http://www.w3.org/2000/svg" width="44" height="44" viewBox="0 0 44 44" fill="none"> <rect width="44" height="44" fill="#272E33"></rect> <path fill-rule="evenodd" clip-rule="evenodd" d="M0 0C0 12.1489 9.85111 22 22 22C9.85111 22 0 31.8511 0 44H11C11 37.9133 15.9378 33 22 33C28.0622 33 33 37.9133 33 44H44C44 31.8511 34.1489 22 22 22C34.1489 22 44 12.1489 44 0H33C33 6.08667 28.0622 11 22 11C15.9378 11 11 6.08667 11 0H0Z" fill="url(#paint0_linear)"></path> <defs> <linearGradient id="paint0_linear" x1="44" y1="44" x2="0" y2="0" gradientUnits="userSpaceOnUse"> <stop stop-color="#A585EF"></stop> <stop offset="1" stop-color="#FFB9EB"></stop> </linearGradient> </defs> </svg> 