<?xml version="1.0" encoding="UTF-8"?> <svg xmlns="http://www.w3.org/2000/svg" width="260" height="100" viewBox="0 0 260 100" fill="none"> <rect width="260" height="100" fill="#1A2226"></rect> <path d="M53.7159 40.9583H48.8202L43.9556 42.1553V40.9583H36V67.3757H43.9556V47.7621H53.7159V67.3757H61.6715V40.9583H53.7159Z" fill="#3964D4"></path> <path d="M158.849 40.9578V30H145.438V36.8039H150.893V67.3752H158.849V47.7617H168.609V67.3752H176.565V40.9578H158.849Z" fill="#3964D4"></path> <path d="M186.905 40.958V60.5716H181.449V67.3754H201.852V60.5716H194.861V47.7619H201.852V40.958H186.905Z" fill="#3964D4"></path> <path d="M137.565 51.8237L130.699 60.5716H127.743V40.958H119.787V51.8237L112.921 60.5716H109.965V40.958H102.02V67.3754H116.375H116.427L119.787 63.0987V67.3754H135.377L145.521 54.4634V40.958H137.565V51.8237Z" fill="#3964D4"></path> <path d="M215.266 39.1465L206.542 51.2809H223.999L215.266 39.1465Z" fill="#3964D4"></path> <path d="M96.0465 53.9726C96.0465 53.0211 95.9531 52.09 95.7664 51.1999C94.4699 44.7848 88.7236 39.9658 81.8468 39.9658C74.0053 39.9658 67.6367 46.2377 67.6367 53.9828C67.6367 61.728 73.9949 67.9998 81.8468 67.9998C87.5515 67.9998 92.4784 64.6746 94.7396 59.8863H86.1202C84.9377 60.9709 83.413 61.6154 81.7534 61.6154C78.6521 61.6154 76.0279 59.3338 75.167 56.203H95.8805C95.9842 55.4766 96.0465 54.7297 96.0465 53.9726ZM75.333 51.1999C76.3287 48.3556 78.8284 46.34 81.7431 46.34C84.6577 46.34 87.1574 48.3556 88.1531 51.1999H75.333Z" fill="#3964D4"></path> </svg> 