<?xml version="1.0" encoding="UTF-8"?> <svg xmlns="http://www.w3.org/2000/svg" width="48" height="48" viewBox="0 0 48 48" fill="none"> <rect width="48" height="48" fill="#A265DE"></rect> <path d="M20.001 24C20.001 21.7909 21.7913 19.9997 24.0005 19.9997C26.2096 19.9997 28.001 21.7909 28.001 24C28.001 26.2091 26.2096 28.0003 24.0005 28.0003C21.7913 28.0003 20.001 26.2091 20.001 24ZM17.8384 24C17.8384 27.4032 20.5971 30.1619 24.0005 30.1619C27.4038 30.1619 30.1626 27.4032 30.1626 24C30.1626 20.5968 27.4038 17.8381 24.0005 17.8381C20.5971 17.8381 17.8384 20.5968 17.8384 24ZM28.9665 17.5938C28.9664 17.8786 29.0507 18.1571 29.2088 18.3939C29.367 18.6308 29.5918 18.8155 29.8549 18.9246C30.118 19.0337 30.4075 19.0623 30.6869 19.0068C30.9663 18.9514 31.2229 18.8143 31.4244 18.613C31.6259 18.4117 31.7631 18.1552 31.8188 17.8759C31.8745 17.5966 31.8461 17.307 31.7372 17.0439C31.6283 16.7807 31.4438 16.5557 31.2071 16.3974C30.9703 16.2391 30.6919 16.1545 30.4071 16.1544H30.4065C30.0248 16.1546 29.6587 16.3063 29.3887 16.5762C29.1186 16.846 28.9668 17.2121 28.9665 17.5938V17.5938ZM19.1523 33.7677C17.9823 33.7144 17.3464 33.5196 16.9237 33.3549C16.3635 33.1368 15.9637 32.877 15.5434 32.4573C15.1231 32.0376 14.8629 31.6382 14.6458 31.078C14.481 30.6556 14.2861 30.0195 14.233 28.8495C14.1748 27.5846 14.1632 27.2047 14.1632 24.0001C14.1632 20.7955 14.1757 20.4166 14.233 19.1507C14.2862 17.9807 14.4826 17.3459 14.6458 16.9222C14.8639 16.362 15.1237 15.9622 15.5434 15.5419C15.9631 15.1216 16.3625 14.8615 16.9237 14.6443C17.3462 14.4796 17.9823 14.2847 19.1523 14.2315C20.4172 14.1733 20.7972 14.1617 24.0005 14.1617C27.2037 14.1617 27.5841 14.1743 28.8501 14.2315C30.0201 14.2848 30.655 14.4811 31.0787 14.6443C31.6389 14.8615 32.0387 15.1222 32.459 15.5419C32.8793 15.9616 33.1385 16.362 33.3566 16.9222C33.5214 17.3446 33.7163 17.9807 33.7694 19.1507C33.8276 20.4166 33.8392 20.7955 33.8392 24.0001C33.8392 27.2047 33.8276 27.5836 33.7694 28.8495C33.7162 30.0195 33.5203 30.6554 33.3566 31.078C33.1385 31.6382 32.8787 32.038 32.459 32.4573C32.0393 32.8766 31.6389 33.1368 31.0787 33.3549C30.6562 33.5196 30.0201 33.7145 28.8501 33.7677C27.5852 33.8259 27.2052 33.8375 24.0005 33.8375C20.7958 33.8375 20.4168 33.8259 19.1523 33.7677V33.7677ZM19.0529 12.0727C17.7754 12.1308 16.9024 12.3334 16.1401 12.63C15.3505 12.9364 14.6822 13.3474 14.0143 14.0142C13.3464 14.681 12.9364 15.3504 12.6301 16.1399C12.3334 16.9027 12.1309 17.7752 12.0727 19.0526C12.0135 20.3321 12 20.7412 12 24C12 27.2588 12.0135 27.6679 12.0727 28.9474C12.1309 30.2249 12.3334 31.0973 12.6301 31.8601C12.9364 32.6491 13.3465 33.3193 14.0143 33.9858C14.6821 34.6524 15.3505 35.0628 16.1401 35.37C16.9039 35.6666 17.7754 35.8692 19.0529 35.9273C20.3331 35.9855 20.7415 36 24.0005 36C27.2594 36 27.6685 35.9865 28.948 35.9273C30.2257 35.8692 31.098 35.6666 31.8609 35.37C32.6499 35.0628 33.3188 34.6526 33.9867 33.9858C34.6546 33.319 35.0637 32.6491 35.3709 31.8601C35.6675 31.0973 35.8711 30.2248 35.9283 28.9474C35.9865 27.6669 36 27.2588 36 24C36 20.7412 35.9865 20.3321 35.9283 19.0526C35.8701 17.7751 35.6675 16.9022 35.3709 16.1399C35.0637 15.3509 34.6535 14.682 33.9867 14.0142C33.3199 13.3463 32.6499 12.9364 31.8619 12.63C31.098 12.3334 30.2256 12.1299 28.949 12.0727C27.6695 12.0145 27.2604 12 24.0014 12C20.7425 12 20.3331 12.0135 19.0529 12.0727Z" fill="white"></path> </svg> 