<?xml version="1.0" encoding="UTF-8"?> <svg xmlns="http://www.w3.org/2000/svg" width="48" height="48" viewBox="0 0 48 48" fill="none"> <rect width="48" height="48" fill="#A265DE"></rect> <path d="M10.4592 24.0284L16.4502 26.3002L18.769 33.8771C18.9174 34.3624 19.5014 34.5418 19.8891 34.2197L23.2285 31.4538C23.5786 31.164 24.0772 31.1495 24.443 31.4193L30.4662 35.8623C30.8809 36.1686 31.4684 35.9377 31.5724 35.4286L35.9847 13.8647C36.0982 13.3085 35.5604 12.8445 35.0391 13.0494L10.4522 22.6862C9.84546 22.9239 9.85075 23.7967 10.4592 24.0284ZM18.3953 25.0909L30.1038 17.7641C30.3142 17.6328 30.5307 17.9219 30.35 18.0922L20.6871 27.2182C20.3475 27.5394 20.1284 27.9693 20.0663 28.4359L19.7372 30.9143C19.6936 31.2452 19.2361 31.2781 19.1462 30.9578L17.8803 26.4384C17.7353 25.9229 17.9466 25.3723 18.3953 25.0909Z" fill="white"></path> </svg> 